<svg width="204" height="204" viewBox="0 0 204 204" fill="none" xmlns="http://www.w3.org/2000/svg">
<rect width="204" height="204" rx="48" fill="#E7D964"/>
<path d="M94.625 140.875H63.125C52.2313 140.875 42.9453 137.036 35.2672 129.358C27.5891 121.68 23.75 112.394 23.75 101.5C23.75 90.6063 27.5891 81.3203 35.2672 73.6422C42.9453 65.9641 52.2313 62.125 63.125 62.125H94.625V77.875H63.125C56.5625 77.875 50.9844 80.1719 46.3906 84.7656C41.7969 89.3594 39.5 94.9375 39.5 101.5C39.5 108.062 41.7969 113.641 46.3906 118.234C50.9844 122.828 56.5625 125.125 63.125 125.125H94.625V140.875ZM71 109.375V93.625H134V109.375H71ZM110.375 140.875V125.125H141.875C148.437 125.125 154.016 122.828 158.609 118.234C163.203 113.641 165.5 108.062 165.5 101.5C165.5 94.9375 163.203 89.3594 158.609 84.7656C154.016 80.1719 148.437 77.875 141.875 77.875H110.375V62.125H141.875C152.769 62.125 162.055 65.9641 169.733 73.6422C177.411 81.3203 181.25 90.6063 181.25 101.5C181.25 112.394 177.411 121.68 169.733 129.358C162.055 137.036 152.769 140.875 141.875 140.875H110.375Z" fill="black" fill-opacity="0.56"/>
</svg>
